<!-- Generated by IcoMoon.io -->
<svg version="1.1" xmlns="http://www.w3.org/2000/svg" width="32" height="32" viewBox="0 0 32 32">
<title>normal</title>
<path  opacity="0.8" d="M22.601 2.663c-1.139 0-2.268 0.224-3.319 0.66s-2.004 1.077-2.809 1.882l-0.472 0.469-0.469-0.469c-1.625-1.625-3.833-2.538-6.132-2.538s-4.503 0.913-6.128 2.538c-1.625 1.625-2.538 3.83-2.538 6.128s0.913 4.503 2.538 6.128l11.788 11.788c0.241 0.241 0.575 0.39 0.943 0.39s0.701-0.149 0.943-0.39l11.785-11.788c0.805-0.805 1.443-1.761 1.878-2.813s0.663-2.177 0.663-3.316-0.227-2.264-0.663-3.316c-0.436-1.052-1.073-2.008-1.878-2.813s-1.761-1.446-2.813-1.882c-1.052-0.436-2.177-0.66-3.316-0.66zM22.601 5.33c0.788 0 1.567 0.157 2.295 0.458s1.391 0.745 1.948 1.302c0.557 0.557 1 1.22 1.302 1.948s0.458 1.507 0.458 2.295-0.157 1.567-0.458 2.295c-0.302 0.728-0.745 1.391-1.302 1.948l-10.844 10.844-10.844-10.844c-1.126-1.126-1.757-2.651-1.757-4.243s0.631-3.117 1.757-4.243c1.126-1.126 2.651-1.757 4.243-1.757s3.117 0.631 4.243 1.757l1.417 1.413c0.241 0.241 0.575 0.39 0.943 0.39s0.701-0.149 0.943-0.39l1.413-1.413c0.557-0.558 1.216-1 1.944-1.302s1.51-0.458 2.299-0.458z"></path>
</svg>
